# xmcd
#
# Track frame offsets:
#	150
#	9334
#	22448
#	36895
#	56819
#	80064
#	106309
#	119075
#	140175
#	158344
#	172536
#	194147
#	205549
#	219578
#	246185
#	259885
#	279737
#	293792
#	309007
#	317300
#
# Disc length: 4437 seconds
#
# Revision: 1
# Processed by: cddbd v1.5.2PL0 Copyright (c) Steve Scherf et al.
# Submitted via: audiograbber 1.83.01
#
DISCID=23115314
DTITLE=BILL GAITHER - 20 ALLTIME HITS VOL6
DYEAR=2004
DGENRE=Gospel
TTITLE0=Just As I Am
TTITLE1=Soon And Very Soon
TTITLE2=Majesty
TTITLE3=We Will Stand
TTITLE4=Suppertime
TTITLE5=I Stood On The Banks Of Jordan
TTITLE6=I'd Rather Have Jesus
TTITLE7=Lean On Me
TTITLE8=Amazing Grace
TTITLE9=This Old House/When The Saints Go Marching In
TTITLE10=All People That On Earth Do Dwell
TTITLE11=The Unclouded Day
TTITLE12=Something Beautiful
TTITLE13=More Than Wonderful
TTITLE14=The Eastern Gate
TTITLE15=Getting Used To The Family Of God
TTITLE16=Swing Down Chariot
TTITLE17=I've Never Been This Homesick Before
TTITLE18=Blessed Assurance
TTITLE19=This Could Be The Dawning Of That Day
EXTD=
EXTT0=
EXTT1=
EXTT2=
EXTT3=
EXTT4=
EXTT5=
EXTT6=
EXTT7=
EXTT8=
EXTT9=
EXTT10=
EXTT11=
EXTT12=
EXTT13=
EXTT14=
EXTT15=
EXTT16=
EXTT17=
EXTT18=
EXTT19=
PLAYORDER=
